<svg fill="none" xmlns="http://www.w3.org/2000/svg" viewBox="0 0 202 202">
  <g clip-path="url(#clip0)" fill="#ACD5F2">
    <path d="M42.85 179.854c5.707-5.709 5.707-14.995 0-20.704-5.709-5.707-14.995-5.708-20.704 0a14.542 14.542 0 00-4.283 10.352 14.54 14.54 0 004.283 10.352 14.54 14.54 0 0010.352 4.283c3.913 0 7.59-1.521 10.352-4.283zm-16.52-16.52a8.671 8.671 0 016.168-2.549c2.333 0 4.523.907 6.166 2.549a8.664 8.664 0 012.55 6.168 8.66 8.66 0 01-2.55 6.168c-3.4 3.401-8.934 3.401-12.334 0-3.401-3.402-3.401-8.934 0-12.336zM32.498 188.082V194c5.473 0 10.638-1.754 14.94-5.072l-3.616-4.685c-3.255 2.512-7.17 3.839-11.324 3.839zM46.32 181.927l4.397 3.96a24.422 24.422 0 003.768-5.552l-5.307-2.617a18.555 18.555 0 01-2.858 4.209zM51.076 169.502a18.75 18.75 0 01-.687 5.049l5.7 1.593c.6-2.15.905-4.384.905-6.642h-5.918zM176.144 145.912a24.571 24.571 0 00-6.642-.906v5.916c1.72 0 3.418.231 5.049.687l1.593-5.697zM185.887 151.283a24.38 24.38 0 00-5.551-3.768l-2.618 5.307a18.5 18.5 0 014.209 2.858l3.96-4.397zM188.082 169.502H194c0-5.474-1.754-10.64-5.072-14.94l-4.685 3.616c2.511 3.255 3.839 7.171 3.839 11.324zM158.8 57.803l2.42-5.4 5.4 2.42-2.419 5.4-5.401-2.42zM154.776 66.804l2.42-5.402 5.4 2.42-2.419 5.401-5.401-2.42zM140.103 99.534l13.051-29.13 5.4 2.42-13.049 29.13-5.402-2.42z"/>
    <path d="M84.254 113.56l4.186 4.186 13.226-13.226 21.357 13.628 3.184-4.988-20.257-12.926 72.686-72.686-4.184-4.184-72.686 72.686L88.84 75.793l-4.988 3.183 13.628 21.358-13.226 13.226zM30.337 34.522l4.185-4.185 4.185 4.185-4.185 4.185-4.185-4.185zM23.364 27.548l4.184-4.184 4.184 4.184-4.184 4.184-4.184-4.184zM37.31 41.497l4.187-4.184 27.867 27.866-4.185 4.184-27.868-27.866z"/>
    <path d="M58.639 116.402L11.749 11.748 90.14 46.872l2.42-5.4L0 0l53.239 118.822 5.4-2.42z"/>
    <path d="M159.925 138.448l-10.196-10.195-4.186 4.185 2.29 2.29-13.104 13.104-2.93-2.93 10.696-10.694-4.186-4.184-10.695 10.694-2.928-2.93 10.701-10.701 10.323-1.45L202.001 0 76.366 56.292l-7.832 55.701-26.457 26.455c-11.452-3.515-24.049-.45-32.565 8.066-6.132 6.131-9.51 14.296-9.51 22.988s3.378 16.857 9.51 22.988c6.13 6.132 14.294 9.508 22.987 9.508 8.692 0 16.857-3.376 22.988-9.508 8.516-8.517 11.583-21.112 8.066-32.566l26.455-26.457 35.641-5.01-5.149 5.147-1.088-1.089-4.186 4.184 23.225 23.223c-3.517 11.454-.452 24.051 8.065 32.568 6.132 6.132 14.295 9.508 22.989 9.508 8.692 0 16.857-3.378 22.988-9.508 12.675-12.676 12.675-33.301 0-45.976-8.518-8.516-21.116-11.583-32.568-8.066zM81.769 60.354l108.484-48.606-48.606 108.484-51.98 7.306-15.204-15.203 7.306-51.981zm-34.715 81.488l2.93-2.93 13.105 13.106-2.93 2.93-13.105-13.106zm14.23-14.23l2.929-2.929 13.106 13.105-2.93 2.93-13.106-13.106zm8.92 17.29l-2.93 2.932-13.106-13.106 2.931-2.93 13.104 13.104zm11.299-11.298l-13.106-13.106 2.93-2.929 13.106 13.106-2.93 2.929zm-30.2 54.701c-5.015 5.014-11.693 7.775-18.804 7.775-7.112 0-13.79-2.761-18.803-7.775-5.015-5.013-7.775-11.691-7.775-18.803s2.76-13.79 7.775-18.803c5.058-5.06 11.879-7.766 18.825-7.766 2.926 0 5.876.481 8.724 1.469L57.6 160.755c3.33 9.61.892 20.361-6.297 27.55zm100.716-49.393l2.93 2.93-13.106 13.106-2.93-2.93 13.106-13.106zm36.288 49.393c-5.014 5.014-11.691 7.775-18.804 7.775-7.11 0-13.788-2.761-18.802-7.775-7.19-7.19-9.629-17.941-6.297-27.55l16.353-16.353c9.611-3.332 20.36-.893 27.551 6.297 10.368 10.368 10.368 27.238-.001 37.606z"/>
    <path d="M159.15 159.15c-5.708 5.709-5.708 14.995 0 20.704a14.54 14.54 0 0010.352 4.283 14.54 14.54 0 0010.352-4.283c5.708-5.709 5.708-14.995 0-20.704-5.709-5.708-14.995-5.707-20.704 0zm16.52 16.52a8.662 8.662 0 01-6.168 2.549 8.657 8.657 0 01-6.166-2.549c-3.401-3.402-3.401-8.934 0-12.336a8.657 8.657 0 016.166-2.549 8.67 8.67 0 016.168 2.549 8.665 8.665 0 012.549 6.168 8.665 8.665 0 01-2.549 6.168z"/>
  </g>
  <defs>
    <clipPath id="clip0">
      <path fill="#fff" d="M0 0h202v202H0z"/>
    </clipPath>
  </defs>
</svg>