<svg fill="none" xmlns="http://www.w3.org/2000/svg" viewBox="0 0 88 88">
  <path d="M35.03 33.355a3.551 3.551 0 00-3.549-3.548 3.551 3.551 0 00-3.548 3.548 3.551 3.551 0 003.548 3.548 3.552 3.552 0 003.549-3.548zm-3.549.71c-.39 0-.71-.32-.71-.71 0-.39.32-.71.71-.71.39 0 .71.32.71.71 0 .39-.32.71-.71.71zM55.61 29.806a3.551 3.551 0 00-3.548 3.549 3.551 3.551 0 003.548 3.548 3.552 3.552 0 003.549-3.548 3.551 3.551 0 00-3.549-3.548zm0 4.259c-.39 0-.71-.32-.71-.71 0-.39.32-.71.71-.71.39 0 .71.32.71.71 0 .39-.32.71-.71.71z" fill="#F0F3F6"/>
  <path d="M70.513 34.065v-4.707c2.733 2.667 7.556 6.126 14.194 6.126h1.42v-1.42c0-9.157-5.43-13.002-9.16-14.572a15.898 15.898 0 004.615-4.901 15.806 15.806 0 002.105-5.929L84.924 0h-4.7a15.99 15.99 0 00-14.298 8.835l-.928 1.857C60.068 4.212 52.299 0 43.546 0c-14.87 0-26.968 12.097-26.968 26.968v7.097c0 11.359 7.07 21.08 17.032 25.047v.626l-13.007 1.205c-6.556 1.009-12.073 5.752-14.05 12.086L1.873 88h83.345l-4.68-14.973c-1.978-6.333-7.494-11.076-14.136-12.096l-12.92-1.193v-.626c9.962-3.967 17.031-13.688 17.031-25.047zm12.716-1.49c-7.407-.71-12.017-6.537-12.818-7.627a26.75 26.75 0 00-.306-2.5l2.877-.959c.15-.05.294-.115.441-.169 1.478.265 9.061 2.065 9.806 11.254zm-14.762-22.47a13.15 13.15 0 0111.76-7.267h1.424l-.775 5.423a12.988 12.988 0 01-1.729 4.87 13.063 13.063 0 01-7.065 5.667l-2.602.867a26.751 26.751 0 00-2.664-6.26l1.65-3.3zM43.546 2.84c8.336 0 15.696 4.25 20.033 10.696l-.012.024.037.019a24.012 24.012 0 013.002 6.293h-46.12c3.037-9.852 12.224-17.032 23.06-17.032zm-24.13 31.226v-7.097a24.2 24.2 0 01.4-4.258h47.459c.248 1.385.4 2.803.4 4.258v7.097a24 24 0 01-.703 5.677H54.901c-3.999 0-7.82-1.91-10.22-5.111l-1.135-1.512-1.136 1.512a12.835 12.835 0 01-10.219 5.11H20.119a24.005 24.005 0 01-.702-5.676zm1.637 51.096l1.188-8.314-2.81-.402-1.246 8.716H5.735L9.26 73.873c1.66-5.304 6.28-9.28 11.689-10.114l4.915-.454c1.73 4.178 6.817 14.58 17.01 21.856H21.054zm27.127 0C36.926 78.883 31.021 67.9 28.853 63.03l5.278-.488.284.663a41.511 41.511 0 0010.753 14.795 41.196 41.196 0 0010.41 6.651l1.148.511H48.18zM36.449 60.743v-.69c2.265.62 4.637.98 7.097.98 2.46 0 4.831-.36 7.097-.98v.69l-.575 1.342c-1.615 3.766-3.83 7.196-6.536 10.26a38.64 38.64 0 01-6.508-10.26l-.575-1.342zm21.854 2.29c-1.066 2.626-3.014 6.916-5.663 10.627l2.309 1.65c3.131-4.385 5.286-9.381 6.305-12.004l4.801.443c5.495.846 10.116 4.82 11.775 10.126l3.527 11.286h-12.45l-1.245-8.717-2.81.401 1.186 8.316H63.72l-6.987-3.105a38.304 38.304 0 01-5.147-2.778 25.015 25.015 0 001.605-1.713l-2.158-1.841a21.372 21.372 0 01-1.837 1.886 38.544 38.544 0 01-2.156-1.748 38.1 38.1 0 01-1.554-1.44c2.987-3.34 5.424-7.093 7.191-11.22l.284-.662 5.343.493zm-14.757-4.84c-10.305 0-19.096-6.504-22.548-15.612H32.19c4.298 0 8.427-1.804 11.355-4.9a15.695 15.695 0 0011.355 4.9h11.193C62.64 51.689 53.85 58.193 43.546 58.193z" fill="#F0F3F6"/>
  <path d="M61.027 26.894l-.898-2.691-12.773 4.261.898 2.692 12.773-4.262zM39.736 28.46l-12.775-4.258-.897 2.692 12.775 4.258.897-2.692z" fill="#F0F3F6"/>
</svg>